<?xml version="1.0" standalone="no"?>
<!DOCTYPE svg PUBLIC "-//W3C//DTD SVG 20010904//EN"
 "http://www.w3.org/TR/2001/REC-SVG-20010904/DTD/svg10.dtd">
<svg version="1.0" xmlns="http://www.w3.org/2000/svg"
 width="103.000000pt" height="29.000000pt" viewBox="0 0 103.000000 29.000000"
 preserveAspectRatio="xMidYMid meet">
<metadata>
Created by potrace 1.16, written by Peter Selinger 2001-2019
</metadata>
<g transform="translate(0.000000,29.000000) scale(0.100000,-0.100000)"
fill="#000000" stroke="none">
<path d="M330 271 c0 -11 -9 -21 -21 -24 -23 -6 -17 -27 7 -27 15 0 18 -20 8
-57 l-6 -23 -20 25 c-11 14 -17 32 -14 41 9 22 -24 31 -40 10 -7 -10 -11 -23
-8 -30 2 -6 -2 -20 -10 -31 -15 -19 -15 -18 -16 16 0 20 -6 42 -14 48 -15 13
-46 5 -46 -13 0 -6 -5 -3 -11 7 -5 9 -17 17 -24 17 -12 0 -15 -16 -15 -70 0
-61 2 -70 18 -70 13 0 22 14 32 48 l14 47 4 -43 c3 -46 22 -63 46 -43 10 8 16
9 21 1 9 -15 61 -12 75 5 11 14 15 14 32 -2 15 -14 23 -15 38 -5 11 7 21 8 25
2 3 -5 31 -9 63 -8 97 1 94 2 75 -30 -22 -38 -12 -62 26 -62 34 0 51 22 51 68
0 26 44 122 56 122 2 0 2 -10 -1 -23 -4 -12 -2 -35 4 -49 9 -23 15 -26 58 -26
26 0 54 5 61 11 8 6 12 6 12 -2 0 -6 17 -10 43 -8 40 2 42 4 46 37 l4 35 6
-30 c6 -31 41 -49 41 -21 0 23 17 20 23 -5 9 -34 51 -22 55 16 2 29 2 29 -13
11 -14 -18 -15 -16 -15 31 0 39 -4 52 -17 57 -11 4 -22 1 -29 -9 -10 -14 -12
-14 -18 0 -6 17 -36 21 -36 4 0 -8 -5 -7 -16 2 -22 18 -34 -3 -34 -58 0 -61
-18 -53 -22 10 -3 50 -4 52 -34 55 -42 4 -64 -19 -64 -69 0 -21 -5 -39 -11
-39 -7 0 -9 18 -7 48 3 41 1 47 -17 47 -11 0 -23 4 -26 9 -12 16 -42 -3 -36
-23 2 -10 1 -25 -4 -32 -6 -10 -9 -4 -9 19 0 17 -1 32 -2 32 -87 13 -90 11
-106 -60 l-10 -45 -1 51 c-1 55 -6 61 -56 60 -31 -1 -49 -24 -60 -81 -5 -24
-8 -27 -15 -14 -15 26 0 87 21 92 25 7 24 27 -1 27 -13 0 -20 7 -20 20 0 13
-7 20 -20 20 -13 0 -20 -7 -20 -19z"/>
</g>
</svg>
