<svg id="Layer_1" data-name="Layer 1" xmlns="http://www.w3.org/2000/svg" viewBox="0 0 852 873.56"><defs><style>.cls-1{fill:none;stroke:#ababab;stroke-miterlimit:10;stroke-width:60px;}</style></defs><title>insta-grid</title><circle class="cls-1" cx="430" cy="400.56" r="159"/><path class="cls-1" d="M356,866s23-148,130-152,267,0,267,0,127,20,137,173" transform="translate(-196 -54.44)"/><path class="cls-1" d="M1018,848a50.15,50.15,0,0,1-50,50H276a50.15,50.15,0,0,1-50-50V240a50.15,50.15,0,0,1,50-50H968a50.15,50.15,0,0,1,50,50Z" transform="translate(-196 -54.44)"/><polyline class="cls-1" points="331 130.56 430 41.56 512 125.56"/></svg>